# xmcd CD database file
#
# Track frame offsets:
#	150
#	9984
#	32475
#	64748
#	103539
#	124749
#	156212
#	188493
#	207044
#	235349
#	249102
#
# Disc length: 3769 seconds
#
# Revision: 0
# Processed by: cddbd v1.5.2PL0 Copyright (c) Steve Scherf et al.
# Submitted via: CDex 1.70beta2
#
DISCID=7d0eb70b
DTITLE=Various Artist - Jazz made in Luxembourg
DYEAR=2009
DGENRE=Jazz
TTITLE0=Gast Waltzing - JCVD Theme
TTITLE1=Daniel Prud'homme - Couleur Cafe
TTITLE2=Sascha Ley - Young Birds
TTITLE3=Paul Wiltgen and The Transatlantic Collective - Traveling Song
TTITLE4=Jeff Herr Corporation - The Stalker
TTITLE5=Pascal Schumacher Quartet - A Bad Memory
TTITLE6=Marc Demuth 4tet ft. Sofia Ribeiro - Ourique
TTITLE7=David Laborier - RifRaf
TTITLE8=Greg Lamy Quartet - D blues
TTITLE9=Michel Reis - Day Minder
TTITLE10=Maxime Bender Group - Open Range
EXTD=YEAR: 2009
EXTT0=
EXTT1=
EXTT2=
EXTT3=
EXTT4=
EXTT5=
EXTT6=
EXTT7=
EXTT8=
EXTT9=
EXTT10=
PLAYORDER=
